<svg xmlns="http://www.w3.org/2000/svg" viewBox="0 0 197.05 62" role="img" aria-labelledby="l">
  <title id="l">Tapetarija Alekom</title>
  <g transform="translate(0 2) scale(0.29)">
    <circle cx="100" cy="100" r="91" fill="none" stroke="#E7E6E0" stroke-width="7"/>
    <g fill="none" stroke="#BE7242" stroke-width="8" stroke-linecap="round"
       stroke-dasharray="0.1 27">
      <path d="M146.923 44.0788 A73 73 0 0 1 146.923 155.921"/>
      <path d="M53.0765 44.0788 A73 73 0 0 0 53.0765 155.921"/>
    </g>
    <g fill="#E7E6E0"><path transform="translate(58.03 58.31) scale(0.0778113 0.082778)" d="M1041.5 -3.8C1040.4 -3.5 1041.2 -2.8 1035 -2.3C1028.8 -1.8 1011.4 -1.6 1004.3 -0.9C997.2 -0.3 997 -0 992.5 1.6C988 3.2 984.6 6 977.3 8.9C970 11.7 956 15.5 948.7 18.7C941.4 21.8 939.2 23 933.7 27.7C928.1 32.4 921.6 39.4 915.3 46.8C909.1 54.3 903.4 61.3 896 72.1C888.6 82.9 878.4 98.6 870.8 111.6C863.3 124.6 858.1 135.1 850.7 150.2C843.3 165.3 833 186.3 826.6 202.2C820.2 218 818.7 227.6 812.4 245.6C806.1 263.5 798.4 282.3 788.8 309.9C779.2 337.4 764.3 381.9 754.7 410.6C745.2 439.3 737.3 463.1 731.5 481.9C725.8 500.7 724.4 509.7 720.1 523.4C715.9 537.1 710.6 549 705.9 564C701.2 579.1 698.2 593.9 691.9 613.9C685.6 633.9 677.9 651.8 667.9 684.1C657.9 716.3 641.8 774.9 631.9 807.5C622 840.1 594.1 862.8 608.4 879.7C622.6 896.5 698.5 908.4 717.6 908.3C736.8 908.3 721 889.2 723.3 879.2C725.6 869.2 727.9 862 731.6 848.3C735.3 834.7 741 813 745.6 797.5C750.2 782 755.2 769 759.2 755.4C763.3 741.8 764.3 734.1 770.1 715.9C775.8 697.7 787.6 666.1 793.9 646.1C800.3 626.1 801.6 616.5 808.1 596C814.6 575.4 825.6 546.1 833 522.8C840.4 499.6 840.9 491.5 852.3 456.5C863.6 421.5 887.2 354.8 901.2 312.8C915.1 270.8 925.5 234.6 936.1 204.5C946.6 174.3 956.7 150.1 964.6 131.8C972.5 113.5 976.8 105.8 983.5 94.9C990.3 84 998.2 74.1 1005.2 66.4C1012.1 58.7 1018.6 56.8 1025.4 48.5C1032.2 40.2 1041.7 22.8 1045.9 16.7C1050.1 10.6 1049.8 12.6 1050.5 11.8ZM1043.1 -0.9C1023.3 0.3 953.5 3.5 924.2 6.4C894.9 9.3 885.8 12.4 867.2 16.3C848.6 20.2 824.7 26.6 812.6 30C800.6 33.4 807.3 30.8 794.9 36.8C782.4 42.7 752.4 57.7 738.1 65.8C723.9 73.8 718.9 78 709.3 85C699.8 92.1 692.4 97.7 681 107.9C669.5 118 650.7 135.7 640.6 146C630.4 156.2 631.3 155 619.8 169.6C608.4 184.2 585.5 214.2 572 233.6C558.5 253.1 548 270.7 538.7 286.4C529.5 302.1 526.7 307.4 516.2 327.7C505.8 348.1 494.3 368.9 476 408.5C457.7 448.2 422.4 529.2 406.5 565.8C390.6 602.4 389.8 607.8 380.7 628.1C371.6 648.3 361.8 666.3 351.9 687.2C341.9 708.1 331 733.7 321.2 753.4C311.5 773.2 301.3 792 293.4 805.7C285.4 819.3 281.2 824.5 273.5 835.4C265.8 846.3 254.6 862 247 871.3C239.4 880.5 236.9 882.9 228 891C219.2 899.1 204.1 910.9 194.1 919.8C184 928.7 173.2 939.5 167.8 944.2C162.4 948.9 166.2 946 161.5 948.2C156.8 950.4 147.1 954.9 139.6 957.6C132 960.3 122.8 963.3 116.1 964.4C109.3 965.6 105.1 965 99.1 964.5C93.2 964 86 962.6 80.2 961.2C74.4 959.7 70.5 958.4 64.4 955.9C58.3 953.3 48.4 948.5 43.5 945.8C38.5 943 38.4 942.7 34.8 939.3C31.2 936 25.2 930.3 21.8 925.7C18.5 921.1 16.2 915.2 14.7 911.7C13.1 908.2 14.7 905.6 12.5 904.6C10.3 903.5 3.9 903.5 1.5 905.4C-0.8 907.3 -1 913.2 -1.5 916.1C-2.1 918.9 -2.9 917.9 -2 922.4C-1.1 927 1.9 938.1 3.8 943.5C5.7 948.8 6 949.4 9.5 954.4C13.1 959.4 21.4 969 25.3 973.4C29.3 977.8 30.2 978.6 33.2 981C36.1 983.4 36 984 43.1 987.8C50.2 991.6 67.2 1000.1 75.9 1003.8C84.5 1007.4 89.6 1008.4 94.9 1009.6C100.2 1010.8 101.3 1010.9 107.5 1011C113.8 1011.1 124.9 1010.7 132.5 1010C140.1 1009.3 146.6 1008.4 153.4 1007C160.2 1005.6 166.8 1003.9 173.3 1001.7C179.8 999.4 185.6 996.7 192.2 993.5C198.9 990.2 206.6 985.9 213.1 982.1C219.5 978.3 224.9 974.8 230.9 970.4C237 966 241.7 962.5 249.6 955.6C257.5 948.6 269.9 937.3 278.4 928.7C287 920 291.2 915.7 300.7 903.4C310.2 891.2 323.7 872.2 335.3 855C346.8 837.8 360.4 816 370 800.1C379.5 784.2 382 780 392.6 759.5C403.3 739.1 412.1 724.6 434 677.2C456 629.7 498.8 529.3 524.2 474.9C549.7 420.5 570.5 381.7 586.7 350.5C603 319.3 612.4 303.5 621.6 287.7C630.9 271.9 633.9 267.6 642.1 255.8C650.2 243.9 661.1 228.9 670.5 216.7C679.9 204.6 686.7 196 698.4 183C710 170 730.2 148.8 740.4 138.7C750.7 128.7 749 130.1 759.9 122.7C770.7 115.3 790.5 102.9 805.6 94.3C820.7 85.6 838.6 76.6 850.4 70.9C862.3 65.1 868.5 63.9 876.6 59.7C884.8 55.5 893.1 48.7 899.2 45.6C905.3 42.4 889.2 46.1 913.4 40.7C937.7 35.3 1023 17.6 1044.9 12.9ZM238.9 612.6C234.2 611.3 216.8 606.5 211.1 604.7C205.4 602.9 206.7 602.9 204.8 601.6C203 600.4 201.9 599.7 200 597.2C198.2 594.7 195.2 590 193.7 586.6C192.3 583.1 191.6 579.6 191.3 576.6C190.9 573.7 190.9 571.4 191.7 568.8C192.6 566.3 194.5 563.5 196.4 561.3C198.3 559.2 201 557.3 203.4 555.7C205.8 554.2 204.6 554.4 211 552.2C217.4 549.9 224.9 548.5 241.9 542.2C258.8 535.9 296.2 520.2 312.7 514.5C329.2 508.7 330.6 509 340.8 507.5C351 506.1 358.4 505.7 373.7 505.8C389.1 505.9 412.1 506.7 433 508.2C453.9 509.7 460.8 511.6 499.3 515C537.8 518.3 626.8 525.1 664.1 528.2C701.5 531.4 713.2 537.4 723.3 534C733.4 530.6 735.1 512.4 724.7 508C714.3 503.6 685.7 508.2 660.9 507.5C636.1 506.9 602.2 505.3 576.1 504C550 502.6 527.8 501.3 504.1 499.3C480.4 497.4 452.7 493.8 434.1 492.3C415.5 490.7 406.4 490.5 392.4 490.2C378.3 489.9 359.3 490.1 349.7 490.4C340.1 490.7 339.6 491.1 334.6 491.9C329.7 492.6 337.8 489.4 319.8 494.8C301.8 500.2 247.3 518 226.7 524.1C206.1 530.3 203.9 528.7 196.3 531.5C188.8 534.2 185.5 537.4 181.3 540.8C177.2 544.3 173.8 548 171.3 552C168.7 556 166.9 560.6 166 564.8C165 568.9 165.1 572.1 165.8 576.9C166.5 581.7 169 589.3 170.4 593.3C171.8 597.4 173 599 174.3 601.2C175.7 603.4 176 604.3 178.5 606.7C181 609 185 612.6 189.3 615.2C193.6 617.7 199.9 620.7 204.1 622.1C208.4 623.4 209.3 623.3 214.8 623.5C220.3 623.7 233.4 623.4 237.1 623.4ZM608 876C606.5 880 602.7 892.7 599 900C595.3 907.3 589.7 915 586 920C582.3 925 580.8 926.7 577 930C573.2 933.3 569.3 936.7 563 940C556.7 943.3 547.5 946.7 539 950C530.5 953.3 517.7 957 512 960C506.3 963 458.2 966.7 505 968C551.8 969.3 746.2 969.3 793 968C839.8 966.7 791.2 963 786 960C780.8 957 769.8 953.3 762 950C754.2 946.7 744.3 943.3 739 940C733.7 936.7 732.2 933.3 730 930C727.8 926.7 727.3 925 726 920C724.7 915 722.3 907.3 722 900C721.7 892.7 723.7 880 724 876Z"/></g>
  </g>
  <g fill="#E7E6E0" aria-hidden="true" transform="translate(73 29)">
    <path transform="translate(0 0) scale(0.0125 -0.0125)" d="M332.9 561.5H909.7L914.3 476.4H325.8ZM433.0 36.9Q433.0 20.3 421.3 10.2Q409.6 0.0 384.2 0.0H71.3Q46.4 0.0 34.2 10.0Q22.1 20.0 22.1 36.6Q22.1 49.2 29.4 57.7Q36.7 66.3 54.9 74.8L89.8 87.5Q120.0 101.1 138.7 126.5Q157.4 152.0 176.8 214.2L503.2 1229.2Q516.3 1270.4 509.1 1289.8Q501.9 1309.2 467.3 1320.7Q443.0 1329.5 432.9 1339.4Q422.9 1349.4 422.9 1363.8Q422.9 1381.1 435.3 1390.6Q447.7 1400.0 473.0 1400.0H927.7Q953.2 1400.0 965.2 1390.6Q977.2 1381.1 977.2 1364.1Q977.2 1348.8 967.4 1338.7Q957.6 1328.7 935.0 1321.8Q907.9 1314.8 902.8 1301.3Q897.6 1287.8 907.6 1256.6L1265.1 173.8Q1278.8 130.5 1296.6 109.7Q1314.3 88.9 1346.0 80.4Q1370.7 71.3 1379.1 61.9Q1387.5 52.4 1387.5 36.9Q1387.5 20.3 1375.2 10.2Q1362.8 0.0 1337.6 0.0H906.1Q880.9 0.0 868.7 10.2Q856.6 20.3 856.6 36.9Q856.6 51.2 865.4 60.0Q874.2 68.8 892.8 74.8L950.6 85.8Q976.2 93.0 976.9 109.7Q977.5 126.4 965.9 162.6L601.1 1288.5L631.8 1312.7L283.4 225.4Q270.7 185.1 272.8 158.9Q274.8 132.7 293.0 115.9Q311.3 99.0 346.1 85.7L397.7 73.9Q415.3 67.7 424.1 59.5Q433.0 51.4 433.0 36.9Z"/><path transform="translate(20.2625 0) scale(0.0125 -0.0125)" d="M644.8 1322.2 581.3 1309.5Q558.3 1303.5 546.0 1291.2Q533.7 1278.8 533.7 1258.6V146.7Q533.7 111.7 554.0 96.7Q574.4 81.7 615.9 81.7H795.9Q851.0 81.7 891.7 97.5Q932.4 113.3 966.5 153.9Q1000.6 194.6 1034.8 270.1L1101.5 417.3Q1111.2 437.6 1125.0 444.9Q1138.7 452.2 1157.4 447.5Q1177.1 443.0 1184.9 429.4Q1192.7 415.8 1186.4 392.6L1096.6 25.2Q1087.8 -6.5 1074.4 -21.0Q1061.0 -35.6 1036.1 -35.6Q1017.8 -35.6 999.4 -26.7Q981.0 -17.8 957.6 -8.9Q934.1 0.0 899.3 0.0H147.0Q122.1 0.0 110.2 10.2Q98.3 20.3 98.3 36.9Q98.3 67.2 133.8 77.8L197.4 90.5Q220.9 96.6 232.9 108.9Q244.9 121.2 244.9 141.4V1258.6Q244.9 1278.8 232.9 1291.2Q220.9 1303.5 197.4 1309.5L133.8 1322.2Q98.3 1332.8 98.3 1363.1Q98.3 1380.5 110.2 1390.3Q122.1 1400.0 147.0 1400.0H631.6Q656.9 1400.0 668.6 1390.3Q680.3 1380.5 680.3 1363.1Q680.3 1332.8 644.8 1322.2Z"/><path transform="translate(38.1125 0) scale(0.0125 -0.0125)" d="M435.5 746.6H749.7Q815.4 746.6 843.1 773.2Q870.9 799.7 882.6 874.7Q887.3 895.1 897.2 904.7Q907.2 914.3 922.2 915.4Q953.7 917.6 963.0 879.7L1044.2 575.9Q1049.6 554.6 1044.1 542.1Q1038.6 529.5 1021.8 524.1Q1005.8 519.2 991.9 524.0Q977.9 528.7 967.7 544.0Q937.3 594.1 911.8 620.4Q886.3 646.7 855.9 656.4Q825.6 666.2 779.9 666.2H435.5ZM99.0 1363.1Q99.0 1380.5 110.9 1390.3Q122.8 1400.0 147.7 1400.0H924.6Q957.2 1400.0 979.2 1409.6Q1001.2 1419.2 1019.8 1428.6Q1038.4 1438.0 1059.9 1438.0Q1083.8 1438.0 1096.4 1424.3Q1109.0 1410.6 1118.2 1378.1L1199.2 1083.4Q1205.5 1062.7 1199.0 1049.1Q1192.5 1035.5 1174.8 1029.7Q1155.0 1023.5 1138.7 1031.0Q1122.5 1038.5 1112.1 1059.1Q1069.6 1141.2 1034.1 1192.2Q998.7 1243.2 964.0 1270.7Q929.3 1298.2 890.7 1308.2Q852.1 1318.3 802.8 1318.3H534.4V168.2Q534.4 124.8 559.4 103.3Q584.4 81.7 634.8 81.7H828.5Q894.4 81.7 944.5 105.5Q994.6 129.3 1043.5 197.9Q1092.4 266.4 1153.4 400.5Q1162.2 419.1 1175.9 426.0Q1189.6 433.0 1206.8 430.1Q1226.7 426.9 1235.4 412.4Q1244.1 397.9 1237.8 374.7L1149.4 25.9Q1140.7 -5.6 1127.3 -20.3Q1113.9 -34.9 1087.9 -34.9Q1068.4 -34.9 1049.9 -26.1Q1031.3 -17.4 1008.5 -8.7Q985.6 0.0 952.2 0.0H147.7Q122.8 0.0 110.9 10.2Q99.0 20.3 99.0 36.9Q99.0 67.2 134.5 77.8L198.1 90.5Q221.6 96.6 233.6 108.9Q245.6 121.2 245.6 141.4V1258.6Q245.6 1278.8 233.6 1291.2Q221.6 1303.5 198.1 1309.5L134.5 1322.2Q99.0 1332.8 99.0 1363.1Z"/><path transform="translate(56.7375 0) scale(0.0125 -0.0125)" d="M439.7 532.1 1056.6 1158.2Q1094.4 1195.4 1105.5 1225.9Q1116.6 1256.5 1104.4 1278.6Q1092.1 1300.7 1058.4 1311.6L1004.5 1323.4Q985.7 1329.8 977.5 1339.2Q969.3 1348.6 969.3 1363.2Q969.3 1380.6 981.6 1390.3Q994.0 1400.0 1018.6 1400.0H1409.2Q1435.0 1400.0 1446.9 1390.3Q1458.8 1380.7 1458.8 1363.2Q1458.8 1348.1 1448.5 1339.5Q1438.1 1330.9 1407.8 1320.9Q1389.0 1315.6 1370.4 1306.7Q1351.9 1297.9 1327.3 1279.9Q1302.7 1261.9 1266.1 1229.3Q1229.5 1196.7 1173.5 1143.8L476.9 453.3ZM688.8 744.3 908.9 931.5 1382.3 157.1Q1404.3 120.9 1427.2 104.6Q1450.0 88.3 1482.7 82.3Q1510.2 73.9 1519.5 62.7Q1528.9 51.5 1528.9 36.8Q1528.9 19.9 1516.3 9.9Q1503.7 0.0 1478.4 0.0H1000.8Q975.5 0.0 963.3 10.1Q951.1 20.3 951.1 37.6Q951.1 52.6 959.5 62.5Q968.0 72.3 983.5 76.2L1043.4 87.0Q1063.7 91.9 1065.3 108.0Q1066.9 124.0 1048.1 155.7ZM534.4 141.4Q534.4 121.2 545.1 109.1Q555.9 97.0 577.6 90.5L636.6 77.8Q657.2 70.3 664.7 61.2Q672.1 52.0 672.1 36.9Q672.1 20.3 660.5 10.2Q648.8 0.0 623.5 0.0H147.7Q122.8 0.0 110.9 10.2Q99.0 20.3 99.0 36.9Q99.0 67.2 134.5 77.8L198.1 90.5Q221.6 96.6 233.6 108.9Q245.6 121.2 245.6 141.4V1258.6Q245.6 1278.8 233.6 1291.2Q221.6 1303.5 198.1 1309.5L134.5 1322.2Q99.0 1332.8 99.0 1363.1Q99.0 1380.5 110.9 1390.3Q122.8 1400.0 147.7 1400.0H632.3Q657.6 1400.0 669.3 1390.3Q681.0 1380.5 681.0 1363.1Q681.0 1332.8 645.5 1322.2L582.0 1309.5Q558.9 1303.5 546.7 1291.2Q534.4 1278.8 534.4 1258.6Z"/><path transform="translate(78.45 0) scale(0.0125 -0.0125)" d="M780.2 1432.0Q941.2 1432.0 1071.9 1377.9Q1202.6 1323.9 1296.3 1225.2Q1389.9 1126.5 1440.3 991.4Q1490.7 856.3 1490.7 693.5Q1490.7 535.3 1440.5 402.2Q1390.4 269.0 1297.2 171.4Q1204.1 73.7 1074.3 20.0Q944.4 -33.7 785.5 -33.7Q625.8 -33.7 495.6 20.3Q365.4 74.3 271.7 173.1Q178.1 271.9 127.7 407.6Q77.3 543.3 77.3 707.2Q77.3 864.7 127.4 997.2Q177.6 1129.7 270.6 1227.1Q363.7 1324.6 492.9 1378.3Q622.2 1432.0 780.2 1432.0ZM1194.6 518.8Q1194.6 653.4 1169.7 776.7Q1144.8 899.9 1100.2 1003.4Q1055.7 1106.9 995.6 1183.6Q935.5 1260.3 864.5 1302.8Q793.5 1345.3 716.0 1345.3Q613.4 1345.3 536.9 1290.5Q460.3 1235.7 418.0 1132.2Q375.8 1028.7 375.8 881.9Q375.8 746.4 400.5 622.6Q425.2 498.7 469.6 394.8Q514.0 290.9 573.9 213.8Q633.8 136.8 704.7 94.2Q775.7 51.6 852.9 51.6Q957.0 51.6 1033.6 106.4Q1110.2 161.2 1152.4 265.5Q1194.6 369.8 1194.6 518.8Z"/><path transform="translate(100.562 0) scale(0.0125 -0.0125)" d="M950.5 395.5 867.5 361.6 1240.6 1323.5Q1256.9 1366.8 1278.6 1383.4Q1300.3 1400.0 1338.6 1400.0H1625.6Q1650.8 1400.0 1663.1 1390.3Q1675.5 1380.5 1675.5 1363.1Q1675.5 1348.4 1666.9 1338.3Q1658.3 1328.2 1639.5 1322.6L1580.2 1308.7Q1549.1 1300.5 1537.8 1283.6Q1526.4 1266.8 1528.9 1229.5L1608.2 156.2Q1610.2 124.1 1621.5 111.2Q1632.8 98.3 1661.3 90.8L1718.5 77.4Q1736.5 72.4 1744.6 62.7Q1752.7 53.1 1752.7 38.7Q1752.7 22.1 1740.5 11.1Q1728.3 0.0 1703.1 0.0H1223.3Q1197.9 0.0 1185.6 10.2Q1173.2 20.3 1173.2 36.9Q1173.2 51.3 1181.2 61.4Q1189.3 71.5 1209.7 77.4L1267.2 90.8Q1300.2 99.6 1311.8 113.5Q1323.3 127.5 1321.5 156.0L1237.6 1239.3L1313.1 1246.3L889.3 138.1Q874.4 97.8 858.7 86.0Q843.0 74.2 822.2 74.2Q807.0 74.2 794.4 78.7Q781.7 83.1 770.7 97.3Q759.8 111.5 747.8 141.2L311.5 1219.3L384.0 1251.3L297.3 193.4Q294.0 151.2 316.3 128.3Q338.6 105.4 378.8 90.3L436.9 73.5Q450.7 67.9 458.5 59.9Q466.3 51.9 466.3 38.3Q466.3 21.2 454.1 10.6Q441.9 0.0 416.7 0.0H86.1Q60.9 0.0 48.8 10.2Q36.7 20.3 36.7 36.9Q36.7 54.2 47.4 63.2Q58.1 72.1 75.6 78.8L121.5 92.7Q157.9 104.5 179.5 128.1Q201.0 151.8 204.5 194.3L287.8 1203.1Q291.8 1250.9 279.3 1275.6Q266.7 1300.3 233.7 1308.5L179.2 1320.4Q158.5 1326.3 148.9 1336.2Q139.2 1346.0 139.2 1362.0Q139.2 1400.0 191.3 1400.0H476.5Q512.3 1400.0 534.1 1385.7Q555.8 1371.3 572.4 1327.9Z"/>
  </g>
  <path d="M73 36.5 h123.05" stroke="#BE7242"
        stroke-width="1.1" stroke-linecap="round" stroke-dasharray="1.1 4.4"/>
  <g fill="#E7E6E0" aria-hidden="true" transform="translate(73 52)">
    <path transform="translate(0 0) scale(0.0055 -0.0055)" d="M309.9 1400.0H1046.0Q1079.6 1400.0 1101.5 1409.1Q1123.5 1418.3 1140.7 1427.0Q1157.9 1435.8 1175.9 1435.8Q1201.9 1435.8 1215.8 1422.8Q1229.6 1409.9 1237.8 1377.6L1304.0 1045.6Q1309.0 1022.0 1301.1 1007.2Q1293.3 992.4 1273.7 988.8Q1255.4 984.9 1241.2 992.1Q1227.0 999.3 1217.2 1019.8Q1164.0 1143.7 1124.1 1207.0Q1084.3 1270.2 1044.8 1292.7Q1005.3 1315.3 952.4 1315.3H823.2V141.4Q823.2 121.2 835.5 108.9Q847.8 96.6 870.8 90.5L934.3 77.8Q969.8 67.2 969.8 36.9Q969.8 0.0 921.2 0.0H436.5Q411.6 0.0 399.7 10.2Q387.9 20.3 387.9 36.9Q387.9 67.2 423.4 77.8L486.9 90.5Q510.5 96.6 522.5 108.9Q534.5 121.2 534.5 141.4V1315.3H405.3Q353.3 1315.3 313.7 1292.1Q274.2 1268.9 234.2 1205.5Q194.2 1142.2 140.5 1019.8Q131.1 999.3 116.7 992.1Q102.2 984.9 84.0 988.8Q64.9 992.4 57.1 1007.2Q49.4 1022.0 53.7 1045.6L119.9 1377.6Q128.1 1409.9 142.0 1422.8Q155.8 1435.8 181.8 1435.8Q200.0 1435.8 216.6 1427.0Q233.1 1418.3 255.0 1409.1Q276.8 1400.0 309.9 1400.0Z"/><path transform="translate(13.3062 0) scale(0.0055 -0.0055)" d="M332.9 561.5H909.7L914.3 476.4H325.8ZM433.0 36.9Q433.0 20.3 421.3 10.2Q409.6 0.0 384.2 0.0H71.3Q46.4 0.0 34.2 10.0Q22.1 20.0 22.1 36.6Q22.1 49.2 29.4 57.7Q36.7 66.3 54.9 74.8L89.8 87.5Q120.0 101.1 138.7 126.5Q157.4 152.0 176.8 214.2L503.2 1229.2Q516.3 1270.4 509.1 1289.8Q501.9 1309.2 467.3 1320.7Q443.0 1329.5 432.9 1339.4Q422.9 1349.4 422.9 1363.8Q422.9 1381.1 435.3 1390.6Q447.7 1400.0 473.0 1400.0H927.7Q953.2 1400.0 965.2 1390.6Q977.2 1381.1 977.2 1364.1Q977.2 1348.8 967.4 1338.7Q957.6 1328.7 935.0 1321.8Q907.9 1314.8 902.8 1301.3Q897.6 1287.8 907.6 1256.6L1265.1 173.8Q1278.8 130.5 1296.6 109.7Q1314.3 88.9 1346.0 80.4Q1370.7 71.3 1379.1 61.9Q1387.5 52.4 1387.5 36.9Q1387.5 20.3 1375.2 10.2Q1362.8 0.0 1337.6 0.0H906.1Q880.9 0.0 868.7 10.2Q856.6 20.3 856.6 36.9Q856.6 51.2 865.4 60.0Q874.2 68.8 892.8 74.8L950.6 85.8Q976.2 93.0 976.9 109.7Q977.5 126.4 965.9 162.6L601.1 1288.5L631.8 1312.7L283.4 225.4Q270.7 185.1 272.8 158.9Q274.8 132.7 293.0 115.9Q311.3 99.0 346.1 85.7L397.7 73.9Q415.3 67.7 424.1 59.5Q433.0 51.4 433.0 36.9Z"/><path transform="translate(26.9588 0) scale(0.0055 -0.0055)" d="M1302.4 888.5Q1302.4 757.8 1237.0 662.0Q1171.7 566.1 1052.9 513.4Q934.1 460.8 774.5 460.8Q665.6 460.8 576.6 484.0Q487.7 507.3 420.2 550.7L431.9 622.6Q470.1 596.6 512.9 579.6Q555.7 562.5 602.3 554.2Q648.9 545.9 697.8 545.9Q790.7 545.9 863.0 586.7Q935.4 627.4 976.9 705.8Q1018.5 784.2 1018.5 895.3Q1018.5 1025.8 968.6 1120.8Q918.8 1215.8 829.2 1267.5Q739.7 1319.2 619.5 1319.2H534.4V141.5Q534.4 121.5 545.8 108.1Q557.2 94.7 581.3 90.6L671.3 78.1Q692.0 74.5 700.9 64.7Q709.9 55.0 709.9 36.9Q709.9 20.3 698.3 10.1Q686.6 0.0 661.3 0.0H147.8Q122.8 0.0 110.9 10.1Q99.0 20.3 99.0 37.0Q99.0 67.1 134.3 77.8L199.0 90.7Q222.2 96.8 233.9 109.2Q245.6 121.6 245.6 141.3V1257.9Q245.6 1278.0 233.9 1290.7Q222.2 1303.3 199.4 1309.3L133.9 1322.3Q99.0 1332.8 99.0 1363.0Q99.0 1380.7 110.9 1390.3Q122.7 1400.0 147.7 1400.0H625.7Q837.5 1400.0 988.9 1334.5Q1140.3 1269.0 1221.3 1153.5Q1302.4 1038.0 1302.4 888.5Z"/><path transform="translate(40.2485 0) scale(0.0055 -0.0055)" d="M435.5 746.6H749.7Q815.4 746.6 843.1 773.2Q870.9 799.7 882.6 874.7Q887.3 895.1 897.2 904.7Q907.2 914.3 922.2 915.4Q953.7 917.6 963.0 879.7L1044.2 575.9Q1049.6 554.6 1044.1 542.1Q1038.6 529.5 1021.8 524.1Q1005.8 519.2 991.9 524.0Q977.9 528.7 967.7 544.0Q937.3 594.1 911.8 620.4Q886.3 646.7 855.9 656.4Q825.6 666.2 779.9 666.2H435.5ZM99.0 1363.1Q99.0 1380.5 110.9 1390.3Q122.8 1400.0 147.7 1400.0H924.6Q957.2 1400.0 979.2 1409.6Q1001.2 1419.2 1019.8 1428.6Q1038.4 1438.0 1059.9 1438.0Q1083.8 1438.0 1096.4 1424.3Q1109.0 1410.6 1118.2 1378.1L1199.2 1083.4Q1205.5 1062.7 1199.0 1049.1Q1192.5 1035.5 1174.8 1029.7Q1155.0 1023.5 1138.7 1031.0Q1122.5 1038.5 1112.1 1059.1Q1069.6 1141.2 1034.1 1192.2Q998.7 1243.2 964.0 1270.7Q929.3 1298.2 890.7 1308.2Q852.1 1318.3 802.8 1318.3H534.4V168.2Q534.4 124.8 559.4 103.3Q584.4 81.7 634.8 81.7H828.5Q894.4 81.7 944.5 105.5Q994.6 129.3 1043.5 197.9Q1092.4 266.4 1153.4 400.5Q1162.2 419.1 1175.9 426.0Q1189.6 433.0 1206.8 430.1Q1226.7 426.9 1235.4 412.4Q1244.1 397.9 1237.8 374.7L1149.4 25.9Q1140.7 -5.6 1127.3 -20.3Q1113.9 -34.9 1087.9 -34.9Q1068.4 -34.9 1049.9 -26.1Q1031.3 -17.4 1008.5 -8.7Q985.6 0.0 952.2 0.0H147.7Q122.8 0.0 110.9 10.2Q99.0 20.3 99.0 36.9Q99.0 67.2 134.5 77.8L198.1 90.5Q221.6 96.6 233.6 108.9Q245.6 121.2 245.6 141.4V1258.6Q245.6 1278.8 233.6 1291.2Q221.6 1303.5 198.1 1309.5L134.5 1322.2Q99.0 1332.8 99.0 1363.1Z"/><path transform="translate(53.1807 0) scale(0.0055 -0.0055)" d="M309.9 1400.0H1046.0Q1079.6 1400.0 1101.5 1409.1Q1123.5 1418.3 1140.7 1427.0Q1157.9 1435.8 1175.9 1435.8Q1201.9 1435.8 1215.8 1422.8Q1229.6 1409.9 1237.8 1377.6L1304.0 1045.6Q1309.0 1022.0 1301.1 1007.2Q1293.3 992.4 1273.7 988.8Q1255.4 984.9 1241.2 992.1Q1227.0 999.3 1217.2 1019.8Q1164.0 1143.7 1124.1 1207.0Q1084.3 1270.2 1044.8 1292.7Q1005.3 1315.3 952.4 1315.3H823.2V141.4Q823.2 121.2 835.5 108.9Q847.8 96.6 870.8 90.5L934.3 77.8Q969.8 67.2 969.8 36.9Q969.8 0.0 921.2 0.0H436.5Q411.6 0.0 399.7 10.2Q387.9 20.3 387.9 36.9Q387.9 67.2 423.4 77.8L486.9 90.5Q510.5 96.6 522.5 108.9Q534.5 121.2 534.5 141.4V1315.3H405.3Q353.3 1315.3 313.7 1292.1Q274.2 1268.9 234.2 1205.5Q194.2 1142.2 140.5 1019.8Q131.1 999.3 116.7 992.1Q102.2 984.9 84.0 988.8Q64.9 992.4 57.1 1007.2Q49.4 1022.0 53.7 1045.6L119.9 1377.6Q128.1 1409.9 142.0 1422.8Q155.8 1435.8 181.8 1435.8Q200.0 1435.8 216.6 1427.0Q233.1 1418.3 255.0 1409.1Q276.8 1400.0 309.9 1400.0Z"/><path transform="translate(66.4868 0) scale(0.0055 -0.0055)" d="M332.9 561.5H909.7L914.3 476.4H325.8ZM433.0 36.9Q433.0 20.3 421.3 10.2Q409.6 0.0 384.2 0.0H71.3Q46.4 0.0 34.2 10.0Q22.1 20.0 22.1 36.6Q22.1 49.2 29.4 57.7Q36.7 66.3 54.9 74.8L89.8 87.5Q120.0 101.1 138.7 126.5Q157.4 152.0 176.8 214.2L503.2 1229.2Q516.3 1270.4 509.1 1289.8Q501.9 1309.2 467.3 1320.7Q443.0 1329.5 432.9 1339.4Q422.9 1349.4 422.9 1363.8Q422.9 1381.1 435.3 1390.6Q447.7 1400.0 473.0 1400.0H927.7Q953.2 1400.0 965.2 1390.6Q977.2 1381.1 977.2 1364.1Q977.2 1348.8 967.4 1338.7Q957.6 1328.7 935.0 1321.8Q907.9 1314.8 902.8 1301.3Q897.6 1287.8 907.6 1256.6L1265.1 173.8Q1278.8 130.5 1296.6 109.7Q1314.3 88.9 1346.0 80.4Q1370.7 71.3 1379.1 61.9Q1387.5 52.4 1387.5 36.9Q1387.5 20.3 1375.2 10.2Q1362.8 0.0 1337.6 0.0H906.1Q880.9 0.0 868.7 10.2Q856.6 20.3 856.6 36.9Q856.6 51.2 865.4 60.0Q874.2 68.8 892.8 74.8L950.6 85.8Q976.2 93.0 976.9 109.7Q977.5 126.4 965.9 162.6L601.1 1288.5L631.8 1312.7L283.4 225.4Q270.7 185.1 272.8 158.9Q274.8 132.7 293.0 115.9Q311.3 99.0 346.1 85.7L397.7 73.9Q415.3 67.7 424.1 59.5Q433.0 51.4 433.0 36.9Z"/><path transform="translate(80.1395 0) scale(0.0055 -0.0055)" d="M1321.2 918.3Q1321.2 821.3 1277.9 742.6Q1234.6 663.8 1155.3 611.2Q1076.0 558.7 966.5 538.8Q931.2 532.7 900.1 526.0Q869.0 519.3 837.4 514.6Q805.8 509.9 767.8 509.9Q702.4 509.9 645.2 518.8Q588.0 527.7 541.0 544.7Q494.0 561.8 458.4 585.4L465.3 658.6Q495.2 637.1 534.3 622.4Q573.3 607.7 619.2 600.4Q665.1 593.1 714.7 593.1Q859.4 593.1 941.7 674.0Q1024.1 754.9 1024.1 913.4Q1024.1 1032.8 974.5 1125.4Q924.9 1217.9 835.2 1271.0Q745.6 1324.0 626.4 1324.0H533.7V144.0Q533.7 122.4 544.3 109.6Q554.9 96.8 576.9 90.5L651.6 77.8Q672.2 70.7 679.6 61.3Q687.1 52.0 687.1 36.9Q687.1 0.0 638.4 0.0H147.0Q122.1 0.0 110.2 10.2Q98.3 20.3 98.3 36.9Q98.3 67.2 133.8 77.8L197.4 90.5Q221.1 96.7 233.0 109.5Q244.9 122.4 244.9 144.0V1258.6Q244.9 1278.8 232.9 1291.2Q220.9 1303.5 197.4 1309.5L133.8 1322.2Q98.3 1332.8 98.3 1363.1Q98.3 1380.5 110.2 1390.3Q122.1 1400.0 147.0 1400.0H634.5Q854.5 1400.0 1007.7 1338.7Q1161.0 1277.4 1241.1 1168.8Q1321.2 1060.2 1321.2 918.3ZM759.2 545.0 1039.9 577.6 1307.9 148.0Q1327.0 117.6 1347.8 102.3Q1368.6 87.0 1401.8 78.3Q1428.8 70.6 1438.2 61.3Q1447.7 52.0 1447.7 36.9Q1447.7 20.3 1435.3 10.2Q1422.9 0.0 1397.6 0.0H973.1Q925.1 0.0 925.1 36.9Q925.1 47.6 931.4 54.8Q937.7 62.0 951.2 67.7L984.9 75.5Q1007.0 84.2 1010.5 98.4Q1013.9 112.5 998.5 138.7Z"/><path transform="translate(93.9847 0) scale(0.0055 -0.0055)" d="M533.7 141.4Q533.7 121.3 546.0 108.9Q558.3 96.6 581.3 90.5L644.8 77.8Q680.3 67.2 680.3 37.0Q680.3 20.3 668.6 10.1Q657.0 0.0 631.6 0.0H147.0Q122.0 0.0 110.2 10.1Q98.3 20.3 98.3 37.0Q98.3 67.2 133.8 77.8L197.4 90.5Q220.9 96.6 232.9 108.9Q244.9 121.3 244.9 141.4V1258.6Q244.9 1278.7 232.9 1291.1Q220.9 1303.5 197.4 1309.5L133.8 1322.2Q98.3 1332.7 98.3 1363.1Q98.3 1380.5 110.2 1390.3Q122.0 1400.0 147.0 1400.0H631.6Q657.0 1400.0 668.6 1390.3Q680.3 1380.5 680.3 1363.1Q680.3 1332.7 644.8 1322.2L581.3 1309.5Q558.3 1303.5 546.0 1291.1Q533.7 1278.7 533.7 1258.6Z"/><path transform="translate(104.106 0) scale(0.0055 -0.0055)" d="M813.5 237.7Q813.5 116.8 706.9 43.4Q600.3 -30.0 421.1 -30.0Q252.7 -30.0 160.7 36.9Q68.6 103.9 68.6 213.5Q68.6 281.2 105.5 323.0Q142.4 364.9 207.1 364.9Q260.1 364.9 294.0 327.0Q327.9 289.0 327.9 221.9V150.8Q327.9 99.9 353.1 70.8Q378.4 41.7 436.9 41.7Q497.4 41.7 536.8 75.7Q576.2 109.7 576.2 174.3Q576.2 223.5 554.3 266.6Q532.5 309.7 503.6 357.6Q474.7 405.4 452.8 467.1Q431.0 528.9 431.0 614.8V1256.1Q431.0 1277.9 420.1 1291.5Q409.1 1305.1 385.4 1309.2L311.0 1321.4Q289.9 1325.5 280.6 1335.4Q271.2 1345.3 271.2 1362.8Q271.2 1380.5 283.4 1390.3Q295.6 1400.0 320.3 1400.0H816.4Q842.0 1400.0 853.8 1390.3Q865.7 1380.7 865.7 1363.1Q865.7 1333.2 828.0 1322.0L766.1 1309.3Q743.5 1303.2 731.5 1290.8Q719.5 1278.4 719.5 1257.9V630.9Q719.5 560.8 733.8 510.0Q748.0 459.2 766.5 417.5Q785.0 375.9 799.3 333.4Q813.5 290.9 813.5 237.7Z"/><path transform="translate(115.234 0) scale(0.0055 -0.0055)" d="M332.9 561.5H909.7L914.3 476.4H325.8ZM433.0 36.9Q433.0 20.3 421.3 10.2Q409.6 0.0 384.2 0.0H71.3Q46.4 0.0 34.2 10.0Q22.1 20.0 22.1 36.6Q22.1 49.2 29.4 57.7Q36.7 66.3 54.9 74.8L89.8 87.5Q120.0 101.1 138.7 126.5Q157.4 152.0 176.8 214.2L503.2 1229.2Q516.3 1270.4 509.1 1289.8Q501.9 1309.2 467.3 1320.7Q443.0 1329.5 432.9 1339.4Q422.9 1349.4 422.9 1363.8Q422.9 1381.1 435.3 1390.6Q447.7 1400.0 473.0 1400.0H927.7Q953.2 1400.0 965.2 1390.6Q977.2 1381.1 977.2 1364.1Q977.2 1348.8 967.4 1338.7Q957.6 1328.7 935.0 1321.8Q907.9 1314.8 902.8 1301.3Q897.6 1287.8 907.6 1256.6L1265.1 173.8Q1278.8 130.5 1296.6 109.7Q1314.3 88.9 1346.0 80.4Q1370.7 71.3 1379.1 61.9Q1387.5 52.4 1387.5 36.9Q1387.5 20.3 1375.2 10.2Q1362.8 0.0 1337.6 0.0H906.1Q880.9 0.0 868.7 10.2Q856.6 20.3 856.6 36.9Q856.6 51.2 865.4 60.0Q874.2 68.8 892.8 74.8L950.6 85.8Q976.2 93.0 976.9 109.7Q977.5 126.4 965.9 162.6L601.1 1288.5L631.8 1312.7L283.4 225.4Q270.7 185.1 272.8 158.9Q274.8 132.7 293.0 115.9Q311.3 99.0 346.1 85.7L397.7 73.9Q415.3 67.7 424.1 59.5Q433.0 51.4 433.0 36.9Z"/>
  </g>
</svg>
